<svg xmlns="http://www.w3.org/2000/svg" width="496.281" height="518.771" viewBox="0 0 131.308 137.258"><path d="m75.864 134.015-9.467 16.398H47.46l-9.467-16.398 9.467-16.399h18.936z" style="fill:#ffbf00;fill-opacity:1;stroke:#000;stroke-width:.77928;stroke-dasharray:none;stroke-opacity:1" transform="matrix(1.28324 0 0 1.28323 -48.178 -79.8)"/><path d="m75.864 134.015-9.467 16.398H47.46l-9.467-16.398 9.467-16.399h18.936z" style="fill:#ffbf00;fill-opacity:1;stroke:#000;stroke-width:.77928;stroke-dasharray:none;stroke-opacity:1" transform="matrix(1.28324 0 0 1.28323 -7.4 -56.257)"/><path d="m75.864 134.015-9.467 16.398H47.46l-9.467-16.398 9.467-16.399h18.936z" style="fill:#ffbf00;fill-opacity:1;stroke:#000;stroke-width:.77928;stroke-dasharray:none;stroke-opacity:1" transform="matrix(1.28324 0 0 1.28323 -48.178 -126.886)"/><path d="m75.864 134.015-9.467 16.398H47.46l-9.467-16.398 9.467-16.399h18.936z" style="fill:#c79400;fill-opacity:1;stroke:#000;stroke-width:.77928;stroke-dasharray:none;stroke-opacity:1" transform="matrix(1.28324 0 0 1.28323 -7.4 -103.343)"/><path d="m75.864 134.015-9.467 16.398H47.46l-9.467-16.398 9.467-16.399h18.936z" style="fill:#ffbf00;fill-opacity:1;stroke:#000;stroke-width:.77928;stroke-dasharray:none;stroke-opacity:1" transform="matrix(1.28324 0 0 1.28323 33.378 -79.8)"/><path d="m75.864 134.015-9.467 16.398H47.46l-9.467-16.398 9.467-16.399h18.936z" style="fill:#ffbf00;fill-opacity:1;stroke:#000;stroke-width:.77928;stroke-dasharray:none;stroke-opacity:1" transform="matrix(1.28324 0 0 1.28323 -7.4 -150.429)"/><path d="m75.864 134.015-9.467 16.398H47.46l-9.467-16.398 9.467-16.399h18.936z" style="fill:#ffbf00;fill-opacity:1;stroke:#000;stroke-width:.77928;stroke-dasharray:none;stroke-opacity:1" transform="matrix(1.28324 0 0 1.28323 33.378 -126.886)"/></svg>